<svg width="192" height="192" version="1.1" xmlns="http://www.w3.org/2000/svg" desc="Created with imagetracer.js version 1.2.6" ><path fill="rgb(241,239,243)" stroke="rgb(241,239,243)" stroke-width="1" opacity="1" d="M 112.5 50 L 134 50.5 L 112.5 51 L 110.5 52 L 110.5 51 L 112.5 50 Z " /><path fill="rgb(241,239,243)" stroke="rgb(241,239,243)" stroke-width="1" opacity="1" d="M 135.5 51 L 137 53.5 L 136 53.5 L 135.5 51 Z " /><path fill="rgb(241,239,243)" stroke="rgb(241,239,243)" stroke-width="1" opacity="1" d="M 109.5 53 L 111.5 58 L 113 58.5 L 111.5 59 Q 107.7 57.7 109.5 53 Z " /><path fill="rgb(241,239,243)" stroke="rgb(241,239,243)" stroke-width="1" opacity="1" d="M 120.5 59 L 116.5 64 L 109.5 70 L 106.5 70 L 106.5 69 L 109.5 69 L 120.5 59 Z " /><path fill="rgb(241,239,243)" stroke="rgb(241,239,243)" stroke-width="1" opacity="1" d="M 63.5 64 L 68.5 64 L 73 68.5 L 88.5 92 L 91 90.5 Q 88.5 95.5 86 90.5 L 68.5 65 Q 61.8 63.8 60.5 68 L 63.5 64 Z " /><path fill="rgb(241,239,243)" stroke="rgb(241,239,243)" stroke-width="1" opacity="1" d="M 127.5 64 L 129 64.5 L 129 75.5 L 128 75.5 L 127.5 65 L 115 76.5 L 114.5 79 L 114 75 L 127.5 64 Z " /><path fill="rgb(241,239,243)" stroke="rgb(241,239,243)" stroke-width="1" opacity="1" d="M 59.5 69 L 60 133.5 L 59 133.5 L 59.5 69 Z " /><path fill="rgb(241,239,243)" stroke="rgb(241,239,243)" stroke-width="1" opacity="1" d="M 104.5 70 L 102 73.5 L 95.5 83 L 97 80.5 L 104.5 70 Z " /><path fill="rgb(241,239,243)" stroke="rgb(241,239,243)" stroke-width="1" opacity="1" d="M 136.5 76 L 134.5 79 Q 130 80 129 77.5 L 130.5 78 Q 135.5 79 136.5 76 Z " /><path fill="rgb(241,239,243)" stroke="rgb(241,239,243)" stroke-width="1" opacity="1" d="M 116.5 83 L 119 89.5 L 118 89.5 L 116.5 83 Z " /><path fill="rgb(241,239,243)" stroke="rgb(241,239,243)" stroke-width="1" opacity="1" d="M 94.5 84 L 93.5 86 L 94.5 84 Z " /><path fill="rgb(241,239,243)" stroke="rgb(241,239,243)" stroke-width="1" opacity="1" d="M 92.5 87 L 91.5 89 L 92.5 87 Z " /><path fill="rgb(241,239,243)" stroke="rgb(241,239,243)" stroke-width="1" opacity="1" d="M 105.5 90 L 106 92 Q 103.3 90.9 104 93.5 L 98.5 101 L 99 99.5 L 105.5 90 Z " /><path fill="rgb(241,239,243)" stroke="rgb(241,239,243)" stroke-width="1" opacity="1" d="M 72.5 91 L 81 103.5 L 79 102.5 L 73.5 94 L 73 133.5 L 69.5 138 L 71 135.5 L 72 133.5 L 72.5 91 Z " /><path fill="rgb(241,239,243)" stroke="rgb(241,239,243)" stroke-width="1" opacity="1" d="M 106.5 93 L 109 99.5 L 108 99.5 L 106.5 93 Z " /><path fill="rgb(241,239,243)" stroke="rgb(241,239,243)" stroke-width="1" opacity="1" d="M 97.5 102 L 96.5 104 L 97.5 102 Z " /><path fill="rgb(241,239,243)" stroke="rgb(241,239,243)" stroke-width="1" opacity="1" d="M 123.5 103 L 127 112.5 L 126 112.5 L 123.5 103 Z " /><path fill="rgb(241,239,243)" stroke="rgb(241,239,243)" stroke-width="1" opacity="1" d="M 81.5 105 L 84 108.5 L 83 108.5 L 81.5 105 Z " /><path fill="rgb(241,239,243)" stroke="rgb(241,239,243)" stroke-width="1" opacity="1" d="M 95.5 105 L 94.5 107 L 95.5 105 Z " /><path fill="rgb(241,239,243)" stroke="rgb(241,239,243)" stroke-width="1" opacity="1" d="M 93.5 108 L 92.5 110 L 86.5 111 L 85.5 109 L 90.5 110 L 93.5 108 Z " /><path fill="rgb(241,239,243)" stroke="rgb(241,239,243)" stroke-width="1" opacity="1" d="M 112.5 110 L 116 119.5 L 115 119.5 L 112.5 110 Z " /><path fill="rgb(241,239,243)" stroke="rgb(241,239,243)" stroke-width="1" opacity="1" d="M 129.5 120 L 133 130.5 L 132 130.5 L 129.5 120 Z " /><path fill="rgb(241,239,243)" stroke="rgb(241,239,243)" stroke-width="1" opacity="1" d="M 120.5 133 L 124.5 138 L 129 138.5 L 124.5 139 L 120 134.5 L 120.5 133 Z " /><path fill="rgb(241,239,243)" stroke="rgb(241,239,243)" stroke-width="1" opacity="1" d="M 132.5 134 L 133 135.5 L 130 137.5 L 132.5 134 Z " /><path fill="rgb(241,239,243)" stroke="rgb(241,239,243)" stroke-width="1" opacity="1" d="M 60.5 135 Q 62 138.9 68 138.5 L 63.5 139 L 60.5 135 Z " /><path fill="rgb(254,254,255)" stroke="rgb(254,254,255)" stroke-width="1" opacity="1" d="M 43.5 0 L 46 0.5 L 43.5 1 L 43.5 0 Z " /><path fill="rgb(254,254,255)" stroke="rgb(254,254,255)" stroke-width="1" opacity="1" d="M 172.5 0 L 179 0.5 L 172.5 1 L 172.5 0 Z " /><path fill="rgb(254,254,255)" stroke="rgb(254,254,255)" stroke-width="1" opacity="1" d="M 97.5 7 L 98 9.5 L 97 9.5 L 97.5 7 Z " /><path fill="rgb(254,254,255)" stroke="rgb(254,254,255)" stroke-width="1" opacity="1" d="M 0.5 8 L 3 8.5 L 2 10.5 L 2.5 12 Q 0.3 11.3 1 13.5 L 0 13.5 L 1 9.5 L 0.5 8 Z " /><path fill="rgb(254,254,255)" stroke="rgb(254,254,255)" stroke-width="1" opacity="1" d="M 1.5 15 Q 4.8 13.9 4 16.5 Q 0.5 18 3 19.5 L 1.5 22 L 0.5 20 L 2 19.5 L 0 19 L 1.5 15 Z " /><path fill="rgb(254,254,255)" stroke="rgb(254,254,255)" stroke-width="1" opacity="1" d="M 111.5 20 L 112.5 22 L 110.5 23 L 111 21.5 L 111.5 20 Z " /><path fill="rgb(254,254,255)" stroke="rgb(254,254,255)" stroke-width="1" opacity="1" d="M 164.5 21 L 165.5 23 L 164.5 21 Z " /><path fill="rgb(254,254,255)" stroke="rgb(254,254,255)" stroke-width="1" opacity="1" d="M 27.5 22 L 29.5 22 L 31 22.5 L 28.5 24 L 27.5 22 Z " /><path fill="rgb(254,254,255)" stroke="rgb(254,254,255)" stroke-width="1" opacity="1" d="M 84.5 22 L 85.5 24 L 84.5 22 Z " /><path fill="rgb(254,254,255)" stroke="rgb(254,254,255)" stroke-width="1" opacity="1" d="M 137.5 22 L 139 24.5 L 137 25 L 137.5 22 Z " /><path fill="rgb(254,254,255)" stroke="rgb(254,254,255)" stroke-width="1" opacity="1" d="M 152.5 23 L 153 25 L 151 24.5 L 152.5 23 Z " /><path fill="rgb(254,254,255)" stroke="rgb(254,254,255)" stroke-width="1" opacity="1" d="M 0.5 26 L 3 26.5 L 2 29.5 L 2 31.5 L 3 33.5 L 2 36.5 L 3 39.5 L 1 39.5 Q -0.1 42.8 2.5 42 L 2.5 43 Q 0.3 42.3 1 44.5 L 0 44.5 L 1 42.5 L 0 38.5 L 1 36.5 L 0 34.5 L 1 31.5 L 1 29.5 L 0.5 26 Z " /><path fill="rgb(254,254,255)" stroke="rgb(254,254,255)" stroke-width="1" opacity="1" d="M 28 34 L 33 34.5 L 29 35 L 28 39 L 26 38.5 Q 28.8 37.4 28 34 Z " /><path fill="rgb(254,254,255)" stroke="rgb(254,254,255)" stroke-width="1" opacity="1" d="M 82.5 34 L 85.5 35 L 87 34.5 L 86.5 37 Q 82.5 36.5 82.5 34 Z " /><path fill="rgb(254,254,255)" stroke="rgb(254,254,255)" stroke-width="1" opacity="1" d="M 112.5 34 L 114 34.5 L 111.5 36 L 112.5 34 Z " /><path fill="rgb(254,254,255)" stroke="rgb(254,254,255)" stroke-width="1" opacity="1" d="M 138.5 34 L 137.5 36 L 138.5 34 Z " /><path fill="rgb(254,254,255)" stroke="rgb(254,254,255)" stroke-width="1" opacity="1" d="M 140.5 34 L 141 36.5 L 140 36.5 L 140.5 34 Z " /><path fill="rgb(254,254,255)" stroke="rgb(254,254,255)" stroke-width="1" opacity="1" d="M 153.5 34 L 156 34.5 L 153 35 L 152.5 37 L 152 35.5 L 153.5 34 Z " /><path fill="rgb(254,254,255)" stroke="rgb(254,254,255)" stroke-width="1" opacity="1" d="M 168.5 34 Q 170.8 33.3 170 35.5 L 168.5 34 Z " /><path fill="rgb(254,254,255)" stroke="rgb(254,254,255)" stroke-width="1" opacity="1" d="M 95.5 36 L 100 36.5 Q 98.7 39.3 97.5 37 Q 94.5 37.5 95.5 36 Z " /><path fill="rgb(254,254,255)" stroke="rgb(254,254,255)" stroke-width="1" opacity="1" d="M 164.5 36 L 165 38.5 L 163 37.5 L 164.5 36 Z " /><path fill="rgb(254,254,255)" stroke="rgb(254,254,255)" stroke-width="1" opacity="1" d="M 0 46 L 3 46.5 L 2.5 49 Q 0.3 48.3 1 50.5 L 0 50.5 L 0 46 Z " /><path fill="rgb(254,254,255)" stroke="rgb(254,254,255)" stroke-width="1" opacity="1" d="M 115.5 46 Q 117.8 45.3 117 47.5 Q 115.3 45.9 113.5 49 Q 110.9 49.7 112 47 L 115.5 46 Z " /><path fill="rgb(254,254,255)" stroke="rgb(254,254,255)" stroke-width="1" opacity="1" d="M 141 46 L 143 46.5 L 141 47.5 L 141 46 Z " /><path fill="rgb(254,254,255)" stroke="rgb(254,254,255)" stroke-width="1" opacity="1" d="M 44.5 48 L 45 51 L 43 50.5 L 44.5 48 Z " /><path fill="rgb(254,254,255)" stroke="rgb(254,254,255)" stroke-width="1" opacity="1" d="M 15.5 49 L 16 51 L 14 50.5 L 15.5 49 Z " /><path fill="rgb(254,254,255)" stroke="rgb(254,254,255)" stroke-width="1" opacity="1" d="M 68 49 Q 71 48 70 51 Q 67 52 68 49 Z " /><path fill="rgb(254,254,255)" stroke="rgb(254,254,255)" stroke-width="1" opacity="1" d="M 83.5 49 L 84.5 51 Q 81.7 51.7 83.5 49 Z " /><path fill="rgb(254,254,255)" stroke="rgb(254,254,255)" stroke-width="1" opacity="1" d="M 139.5 49 L 140 50.5 L 138 53.5 L 138 55.5 L 138 74.5 L 140 77.5 L 138 78 L 137 74.5 L 137 51 Q 139.8 52 139.5 49 Z " /><path fill="rgb(254,254,255)" stroke="rgb(254,254,255)" stroke-width="1" opacity="1" d="M 2.5 51 L 3 52.5 L 0.5 54 L 0.5 53 Q 3 53.7 2.5 51 Z " /><path fill="rgb(254,254,255)" stroke="rgb(254,254,255)" stroke-width="1" opacity="1" d="M 108.5 51 L 109.5 53 Q 106.7 53.7 108.5 51 Z " /><path fill="rgb(254,254,255)" stroke="rgb(254,254,255)" stroke-width="1" opacity="1" d="M 1.5 55 Q 4.1 54.2 3 57.5 L 2 59.5 L 3 65 L 0 63.5 L 2 62.5 L 0 62 L 0.5 57 L 2 57.5 L 1.5 55 Z " /><path fill="rgb(254,254,255)" stroke="rgb(254,254,255)" stroke-width="1" opacity="1" d="M 109.5 57 L 111 59.5 L 110 59.5 L 109.5 57 Z " /><path fill="rgb(254,254,255)" stroke="rgb(254,254,255)" stroke-width="1" opacity="1" d="M 143.5 58 L 144 59.5 L 142 60.5 L 143.5 58 Z " /><path fill="rgb(254,254,255)" stroke="rgb(254,254,255)" stroke-width="1" opacity="1" d="M 112.5 59 L 120 59.5 Q 118 63.5 112.5 64 L 113 62.5 L 113.5 61 L 115.5 61 L 117 60.5 L 112.5 60 L 112.5 59 Z " /><path fill="rgb(254,254,255)" stroke="rgb(254,254,255)" stroke-width="1" opacity="1" d="M 168.5 61 L 169.5 63 L 168.5 61 Z " /><path fill="rgb(254,254,255)" stroke="rgb(254,254,255)" stroke-width="1" opacity="1" d="M 43.5 62 L 44 64.5 L 41.5 66 L 41.5 65 L 43 64.5 L 41 63.5 L 43.5 62 Z " /><path fill="rgb(254,254,255)" stroke="rgb(254,254,255)" stroke-width="1" opacity="1" d="M 110.5 62 L 111 64 L 109 63.5 L 110.5 62 Z " /><path fill="rgb(254,254,255)" stroke="rgb(254,254,255)" stroke-width="1" opacity="1" d="M 70.5 65 L 71.5 67 L 70.5 65 Z " /><path fill="rgb(254,254,255)" stroke="rgb(254,254,255)" stroke-width="1" opacity="1" d="M 108.5 65 L 111 65.5 L 108.5 66 L 108.5 65 Z " /><path fill="rgb(254,254,255)" stroke="rgb(254,254,255)" stroke-width="1" opacity="1" d="M 127.5 65 L 126.5 67 L 127.5 65 Z " /><path fill="rgb(254,254,255)" stroke="rgb(254,254,255)" stroke-width="1" opacity="1" d="M 0 66 L 3 66.5 L 2 68.5 L 3 71.5 L 1 71.5 Q 0.3 74.1 3 73 L 3 77.5 L 2 77.5 L 1.5 76 L 0.5 82 L 0 66 Z " /><path fill="rgb(254,254,255)" stroke="rgb(254,254,255)" stroke-width="1" opacity="1" d="M 110.5 67 L 109.5 69 L 110.5 67 Z " /><path fill="rgb(254,254,255)" stroke="rgb(254,254,255)" stroke-width="1" opacity="1" d="M 103.5 70 L 101.5 73 L 100 72.5 L 103.5 70 Z " /><path fill="rgb(254,254,255)" stroke="rgb(254,254,255)" stroke-width="1" opacity="1" d="M 121.5 70 L 120 72.5 L 119.5 74 L 119 72.5 L 121.5 70 Z " /><path fill="rgb(254,254,255)" stroke="rgb(254,254,255)" stroke-width="1" opacity="1" d="M 98.5 74 L 99 77.5 L 97 76.5 L 98.5 74 Z " /><path fill="rgb(254,254,255)" stroke="rgb(254,254,255)" stroke-width="1" opacity="1" d="M 83.5 76 L 84.5 78 Q 82.3 77.3 83 79.5 L 81 78.5 Q 80.3 76.3 82.5 77 L 83.5 76 Z " /><path fill="rgb(254,254,255)" stroke="rgb(254,254,255)" stroke-width="1" opacity="1" d="M 42.5 77 L 43 80 L 41 79.5 L 42.5 77 Z " /><path fill="rgb(254,254,255)" stroke="rgb(254,254,255)" stroke-width="1" opacity="1" d="M 95.5 77 L 97 78.5 L 96.5 81 L 94 79.5 L 96 78.5 L 95.5 77 Z " /><path fill="rgb(254,254,255)" stroke="rgb(254,254,255)" stroke-width="1" opacity="1" d="M 136.5 77 L 135.5 79 L 136.5 77 Z " /><path fill="rgb(254,254,255)" stroke="rgb(254,254,255)" stroke-width="1" opacity="1" d="M 166.5 77 L 169 77.5 L 166.5 78 L 166.5 77 Z " /><path fill="rgb(254,254,255)" stroke="rgb(254,254,255)" stroke-width="1" opacity="1" d="M 2.5 82 L 3 88 Q 0 89.3 1 85.5 L 2.5 82 Z " /><path fill="rgb(254,254,255)" stroke="rgb(254,254,255)" stroke-width="1" opacity="1" d="M 41 89 L 44 89.5 L 41 91 L 41 89 Z " /><path fill="rgb(254,254,255)" stroke="rgb(254,254,255)" stroke-width="1" opacity="1" d="M 0.5 90 L 1.5 92 L 3 91.5 L 1 94.5 L 3 100 Q 0.3 98.9 1 101.5 L 0 101.5 Q -1.5 97.1 1.5 98 L 1.5 97 L 0 96.5 L 0 94.5 L 0.5 90 Z " /><path fill="rgb(254,254,255)" stroke="rgb(254,254,255)" stroke-width="1" opacity="1" d="M 108.5 100 L 107.5 102 L 108.5 100 Z " /><path fill="rgb(254,254,255)" stroke="rgb(254,254,255)" stroke-width="1" opacity="1" d="M 2.5 101 L 3 103.5 L 1 106.5 L 3 107 Q 4.1 109.7 1.5 109 L 0 106.5 L 0 104.5 L 0.5 103 L 2 103.5 L 2.5 101 Z " /><path fill="rgb(254,254,255)" stroke="rgb(254,254,255)" stroke-width="1" opacity="1" d="M 77 101 L 79 101.5 L 77 102.5 L 77 101 Z " /><path fill="rgb(254,254,255)" stroke="rgb(254,254,255)" stroke-width="1" opacity="1" d="M 98 101 L 101 101.5 L 100 104 Q 96.7 105.1 98 101 Z " /><path fill="rgb(254,254,255)" stroke="rgb(254,254,255)" stroke-width="1" opacity="1" d="M 44.5 102 L 43.5 104 L 44.5 102 Z " /><path fill="rgb(254,254,255)" stroke="rgb(254,254,255)" stroke-width="1" opacity="1" d="M 107.5 103 L 110 103.5 Q 107.9 106.8 107.5 103 Z " /><path fill="rgb(254,254,255)" stroke="rgb(254,254,255)" stroke-width="1" opacity="1" d="M 96.5 104 L 98 107 L 96 106.5 L 96.5 104 Z " /><path fill="rgb(254,254,255)" stroke="rgb(254,254,255)" stroke-width="1" opacity="1" d="M 110.5 106 L 109.5 108 L 110.5 106 Z " /><path fill="rgb(254,254,255)" stroke="rgb(254,254,255)" stroke-width="1" opacity="1" d="M 110 109 L 112 109.5 L 110 110.5 L 110 109 Z " /><path fill="rgb(254,254,255)" stroke="rgb(254,254,255)" stroke-width="1" opacity="1" d="M 1 110 Q 4 108.8 3 112.5 L 1 111.5 L 1 110 Z " /><path fill="rgb(254,254,255)" stroke="rgb(254,254,255)" stroke-width="1" opacity="1" d="M 0.5 113 L 3 114.5 L 0.5 116 L 0.5 113 Z " /><path fill="rgb(254,254,255)" stroke="rgb(254,254,255)" stroke-width="1" opacity="1" d="M 99.5 115 L 100.5 117 L 99.5 115 Z " /><path fill="rgb(254,254,255)" stroke="rgb(254,254,255)" stroke-width="1" opacity="1" d="M 130.5 115 L 131 117.5 L 130 117.5 L 130.5 115 Z " /><path fill="rgb(254,254,255)" stroke="rgb(254,254,255)" stroke-width="1" opacity="1" d="M 43.5 116 L 42.5 118 L 43.5 116 Z " /><path fill="rgb(254,254,255)" stroke="rgb(254,254,255)" stroke-width="1" opacity="1" d="M 57.5 116 L 57 117.5 Q 57.8 119.8 55.5 119 L 57.5 116 Z " /><path fill="rgb(254,254,255)" stroke="rgb(254,254,255)" stroke-width="1" opacity="1" d="M 0 117 L 3 117.5 L 3 119.5 L 1 126 L 3 126.5 L 3 133 Q 0 132 1 135 Q 4.7 133.8 3 139 L 1 139.5 L 3 140 L 3 147.5 L 2 148.5 L 3 150.5 L 2 150.5 L 1.5 149 L 1 153 L 3 153.5 L 3 155.5 L 2 159.5 L 3 164 L 1 164.5 L 3 165 L 2 168.5 L 3 169.5 L 3 177.5 L 3 179.5 Q 4.5 187.5 0.5 190 L 0 188.5 L 0 186.5 L 1 178.5 L 0 177.5 L 0 170 L 2 169.5 L 1.5 167 Q -1.1 167.8 0 164.5 L 1 161.5 L 0 159.5 L 2 159 L 1.5 157 L 0 157.5 L 0 144.5 L 1 143.5 Q -1.3 142.2 0 137.5 L 0 135.5 L 1 130.5 L 0 129.5 L 0 120 L 2 119.5 L 0 119 L 0 117 Z " /><path fill="rgb(254,254,255)" stroke="rgb(254,254,255)" stroke-width="1" opacity="1" d="M 110.5 117 L 113 118.5 L 110 119 L 110.5 117 Z " /><path fill="rgb(254,254,255)" stroke="rgb(254,254,255)" stroke-width="1" opacity="1" d="M 134.5 119 L 137 120.5 L 133.5 122 L 134 120.5 L 134.5 119 Z " /><path fill="rgb(254,254,255)" stroke="rgb(254,254,255)" stroke-width="1" opacity="1" d="M 114.5 122 L 115.5 124 L 117 123.5 L 115.5 126 L 114.5 122 Z " /><path fill="rgb(254,254,255)" stroke="rgb(254,254,255)" stroke-width="1" opacity="1" d="M 114.5 129 L 113.5 131 L 114.5 129 Z " /><path fill="rgb(254,254,255)" stroke="rgb(254,254,255)" stroke-width="1" opacity="1" d="M 42.5 130 L 44 130.5 L 43 133 L 40 132.5 L 42.5 130 Z " /><path fill="rgb(254,254,255)" stroke="rgb(254,254,255)" stroke-width="1" opacity="1" d="M 84 130 L 86 130.5 L 84 131.5 L 84 130 Z " /><path fill="rgb(254,254,255)" stroke="rgb(254,254,255)" stroke-width="1" opacity="1" d="M 151.5 130 L 152.5 132 Q 149.7 132.7 151.5 130 Z " /><path fill="rgb(254,254,255)" stroke="rgb(254,254,255)" stroke-width="1" opacity="1" d="M 54.5 131 L 58 132.5 L 55 134 L 54.5 132 L 53 132.5 L 54.5 131 Z " /><path fill="rgb(254,254,255)" stroke="rgb(254,254,255)" stroke-width="1" opacity="1" d="M 133.5 131 L 134 133.5 L 133 133.5 L 133.5 131 Z " /><path fill="rgb(254,254,255)" stroke="rgb(254,254,255)" stroke-width="1" opacity="1" d="M 137.5 131 L 139 131.5 L 136.5 135 L 135 134.5 L 137.5 131 Z " /><path fill="rgb(254,254,255)" stroke="rgb(254,254,255)" stroke-width="1" opacity="1" d="M 95 132 L 97 132.5 L 95 133.5 L 95 132 Z " /><path fill="rgb(254,254,255)" stroke="rgb(254,254,255)" stroke-width="1" opacity="1" d="M 117.5 132 Q 119.8 131.3 119 133.5 L 117.5 132 Z " /><path fill="rgb(254,254,255)" stroke="rgb(254,254,255)" stroke-width="1" opacity="1" d="M 164 132 Q 166.7 130.9 166 133.5 L 166.5 135 L 164.5 134 L 162.5 135 L 162.5 134 Q 165.1 134.7 164 132 Z " /><path fill="rgb(254,254,255)" stroke="rgb(254,254,255)" stroke-width="1" opacity="1" d="M 27.5 133 L 28 135 L 26 134.5 L 27.5 133 Z " /><path fill="rgb(254,254,255)" stroke="rgb(254,254,255)" stroke-width="1" opacity="1" d="M 176.5 133 Q 178.8 132.3 178 134.5 L 176.5 133 Z " /><path fill="rgb(254,254,255)" stroke="rgb(254,254,255)" stroke-width="1" opacity="1" d="M 60.5 136 L 62.5 139 Q 60.3 139.8 61 137.5 L 60.5 136 Z " /><path fill="rgb(254,254,255)" stroke="rgb(254,254,255)" stroke-width="1" opacity="1" d="M 121.5 136 L 122.5 138 L 121.5 136 Z " /><path fill="rgb(254,254,255)" stroke="rgb(254,254,255)" stroke-width="1" opacity="1" d="M 44.5 143 L 45 144.5 L 43.5 147 Q 40 145 44.5 143 Z " /><path fill="rgb(254,254,255)" stroke="rgb(254,254,255)" stroke-width="1" opacity="1" d="M 56.5 143 L 57 145 L 55 144.5 L 56.5 143 Z " /><path fill="rgb(254,254,255)" stroke="rgb(254,254,255)" stroke-width="1" opacity="1" d="M 98.5 143 L 99 145 Q 96 143.8 97 147.5 L 96 147.5 L 95 144.5 Q 96.8 146.1 98.5 143 Z " /><path fill="rgb(254,254,255)" stroke="rgb(254,254,255)" stroke-width="1" opacity="1" d="M 71.5 144 L 72 147.5 L 71 147.5 L 71.5 144 Z " /><path fill="rgb(254,254,255)" stroke="rgb(254,254,255)" stroke-width="1" opacity="1" d="M 83.5 144 L 86 144.5 L 82.5 146 L 83.5 144 Z " /><path fill="rgb(254,254,255)" stroke="rgb(254,254,255)" stroke-width="1" opacity="1" d="M 126.5 144 L 127 146.5 L 125.5 149 L 124 146.5 L 126 146 L 126.5 144 Z " /><path fill="rgb(254,254,255)" stroke="rgb(254,254,255)" stroke-width="1" opacity="1" d="M 137 144 L 139 144 Q 137.9 146.7 140.5 146 L 140.5 147 L 136 146.5 L 137 144 Z " /><path fill="rgb(254,254,255)" stroke="rgb(254,254,255)" stroke-width="1" opacity="1" d="M 110.5 145 L 111 146.5 L 107.5 148 L 107.5 147 L 110.5 145 Z " /><path fill="rgb(254,254,255)" stroke="rgb(254,254,255)" stroke-width="1" opacity="1" d="M 150 145 L 153 145.5 L 152.5 148 L 150.5 147 L 149 147.5 L 150 145 Z " /><path fill="rgb(254,254,255)" stroke="rgb(254,254,255)" stroke-width="1" opacity="1" d="M 164 145 Q 167.3 143.9 166 148 Q 162.7 149.1 164 145 Z " /><path fill="rgb(254,254,255)" stroke="rgb(254,254,255)" stroke-width="1" opacity="1" d="M 25.5 147 L 28 147.5 L 25.5 148 L 25.5 147 Z " /><path fill="rgb(254,254,255)" stroke="rgb(254,254,255)" stroke-width="1" opacity="1" d="M 54.5 147 L 53.5 149 L 54.5 147 Z " /><path fill="rgb(254,254,255)" stroke="rgb(254,254,255)" stroke-width="1" opacity="1" d="M 115.5 156 L 116 157.5 L 112 159 L 112.5 157 L 115 158 L 115.5 156 Z " /><path fill="rgb(254,254,255)" stroke="rgb(254,254,255)" stroke-width="1" opacity="1" d="M 140.5 156 L 141 159 L 137 158.5 L 140 158 L 140.5 156 Z " /><path fill="rgb(254,254,255)" stroke="rgb(254,254,255)" stroke-width="1" opacity="1" d="M 14.5 157 Q 17.8 155.9 17 158.5 L 15 159.5 L 15.5 158 L 14.5 157 Z " /><path fill="rgb(254,254,255)" stroke="rgb(254,254,255)" stroke-width="1" opacity="1" d="M 45.5 157 L 46 159 L 44 158.5 L 45.5 157 Z " /><path fill="rgb(254,254,255)" stroke="rgb(254,254,255)" stroke-width="1" opacity="1" d="M 101.5 157 L 102 158.5 L 100 159.5 L 101.5 157 Z " /><path fill="rgb(254,254,255)" stroke="rgb(254,254,255)" stroke-width="1" opacity="1" d="M 154.5 157 L 156 159.5 L 154 158.5 L 154.5 157 Z " /><path fill="rgb(254,254,255)" stroke="rgb(254,254,255)" stroke-width="1" opacity="1" d="M 57.5 158 Q 59.8 157.3 59 159.5 L 56 160.5 L 54 163.5 L 53 163.5 L 52 161.5 L 55 160.5 Q 54.3 158.3 56.5 159 L 57.5 158 Z " /><path fill="rgb(254,254,255)" stroke="rgb(254,254,255)" stroke-width="1" opacity="1" d="M 68 158 Q 71 156.8 70 160.5 L 70.5 162 Q 68.3 162.8 69 160.5 L 68 158 Z " /><path fill="rgb(254,254,255)" stroke="rgb(254,254,255)" stroke-width="1" opacity="1" d="M 178.5 158 L 181 159.5 L 180.5 162 L 178 161.5 L 179 159.5 L 178.5 158 Z " /><path fill="rgb(254,254,255)" stroke="rgb(254,254,255)" stroke-width="1" opacity="1" d="M 82 159 Q 84.7 157.9 84 160.5 L 82 161.5 L 82 159 Z " /><path fill="rgb(254,254,255)" stroke="rgb(254,254,255)" stroke-width="1" opacity="1" d="M 109.5 160 L 108.5 162 L 107 161.5 L 109.5 160 Z " /><path fill="rgb(254,254,255)" stroke="rgb(254,254,255)" stroke-width="1" opacity="1" d="M 28.5 161 L 27.5 163 L 28.5 161 Z " /><path fill="rgb(254,254,255)" stroke="rgb(254,254,255)" stroke-width="1" opacity="1" d="M 148.5 161 L 151 161.5 Q 148.9 164.8 148.5 161 Z " /><path fill="rgb(254,254,255)" stroke="rgb(254,254,255)" stroke-width="1" opacity="1" d="M 73.5 170 L 74 171.5 L 69.5 174 L 69.5 173 L 73 172 L 73.5 170 Z " /><path fill="rgb(254,254,255)" stroke="rgb(254,254,255)" stroke-width="1" opacity="1" d="M 86.5 170 L 89 170.5 L 85.5 172 L 86.5 170 Z " /><path fill="rgb(254,254,255)" stroke="rgb(254,254,255)" stroke-width="1" opacity="1" d="M 99.5 170 L 102 170.5 L 99.5 171 L 99.5 170 Z " /><path fill="rgb(254,254,255)" stroke="rgb(254,254,255)" stroke-width="1" opacity="1" d="M 138.5 170 L 139 174 L 137 173.5 L 138.5 170 Z " /><path fill="rgb(254,254,255)" stroke="rgb(254,254,255)" stroke-width="1" opacity="1" d="M 124.5 171 L 127 171.5 L 124 173.5 L 124.5 171 Z " /><path fill="rgb(254,254,255)" stroke="rgb(254,254,255)" stroke-width="1" opacity="1" d="M 42 172 Q 45 171 44 174 Q 41 175 42 172 Z " /><path fill="rgb(254,254,255)" stroke="rgb(254,254,255)" stroke-width="1" opacity="1" d="M 83.5 172 L 84 173.5 L 82.5 176 L 82 174.5 L 83.5 172 Z " /><path fill="rgb(254,254,255)" stroke="rgb(254,254,255)" stroke-width="1" opacity="1" d="M 110.5 172 L 111 174 L 109 173.5 L 110.5 172 Z " /><path fill="rgb(254,254,255)" stroke="rgb(254,254,255)" stroke-width="1" opacity="1" d="M 141.5 172 L 141.5 175 Q 138.5 173.5 141.5 172 Z " /><path fill="rgb(254,254,255)" stroke="rgb(254,254,255)" stroke-width="1" opacity="1" d="M 121.5 175 L 126 175.5 L 121.5 176 L 121.5 175 Z " /><path fill="rgb(254,254,255)" stroke="rgb(254,254,255)" stroke-width="1" opacity="1" d="M 70.5 184 Q 72.8 183.3 72 185.5 L 70.5 184 Z " /><path fill="rgb(254,254,255)" stroke="rgb(254,254,255)" stroke-width="1" opacity="1" d="M 97 184 L 100 185.5 L 97 186 L 97 184 Z " /><path fill="rgb(254,254,255)" stroke="rgb(254,254,255)" stroke-width="1" opacity="1" d="M 125.5 184 Q 129.3 183 128 186 L 125.5 185 L 122.5 190 L 122 186.5 L 125.5 184 Z " /><path fill="rgb(254,254,255)" stroke="rgb(254,254,255)" stroke-width="1" opacity="1" d="M 43.5 185 Q 44.6 187.8 48 187 L 47.5 189 L 44 188 L 43.5 185 Z " /><path fill="rgb(254,254,255)" stroke="rgb(254,254,255)" stroke-width="1" opacity="1" d="M 112.5 185 L 113 186.5 L 111.5 189 L 111 187.5 L 112.5 185 Z " /><path fill="rgb(254,254,255)" stroke="rgb(254,254,255)" stroke-width="1" opacity="1" d="M 165.5 185 L 167 185.5 L 164.5 187 L 165.5 185 Z " /><path fill="rgb(254,254,255)" stroke="rgb(254,254,255)" stroke-width="1" opacity="1" d="M 14.5 186 L 17 187.5 L 15.5 188 L 14.5 186 Z " /><path fill="rgb(254,254,255)" stroke="rgb(254,254,255)" stroke-width="1" opacity="1" d="M 40.5 186 L 41 188.5 L 40 188.5 L 40.5 186 Z " /><path fill="rgb(254,254,255)" stroke="rgb(254,254,255)" stroke-width="1" opacity="1" d="M 79.5 186 Q 81.8 185.3 81 187.5 L 81.5 189 L 79.5 186 Z " /><path fill="rgb(254,254,255)" stroke="rgb(254,254,255)" stroke-width="1" opacity="1" d="M 85.5 186 L 85.5 188 L 88 188.5 L 84 189 L 85.5 186 Z " /><path fill="rgb(254,254,255)" stroke="rgb(254,254,255)" stroke-width="1" opacity="1" d="M 135.5 186 L 136.5 188 L 135.5 186 Z " /><path fill="rgb(254,254,255)" stroke="rgb(254,254,255)" stroke-width="1" opacity="1" d="M 140.5 186 L 141 188 L 139 187.5 L 140.5 186 Z " /><path fill="rgb(254,254,255)" stroke="rgb(254,254,255)" stroke-width="1" opacity="1" d="M 176.5 186 L 180 188.5 L 178.5 189 L 176.5 189 L 172.5 190 L 172.5 189 L 176 187.5 L 176.5 186 Z " /><path fill="rgb(254,254,255)" stroke="rgb(254,254,255)" stroke-width="1" opacity="1" d="M 93.5 187 Q 96.1 186.3 95 189 L 92.5 190 L 92 188.5 L 93.5 187 Z " /><path fill="rgb(254,254,255)" stroke="rgb(254,254,255)" stroke-width="1" opacity="1" d="M 125.5 187 L 126.5 189 Q 123.7 189.7 125.5 187 Z " /><path fill="rgb(254,254,255)" stroke="rgb(254,254,255)" stroke-width="1" opacity="1" d="M 181.5 187 L 184 188.5 L 182.5 188 L 181.5 187 Z " /><path fill="rgb(254,254,255)" stroke="rgb(254,254,255)" stroke-width="1" opacity="1" d="M 58.5 188 L 61 188.5 Q 61.8 190.8 59.5 190 L 58.5 188 Z " /><path fill="rgb(254,254,255)" stroke="rgb(254,254,255)" stroke-width="1" opacity="1" d="M 97.5 188 Q 100.5 187.2 99 191 L 97 190.5 L 97.5 188 Z " /><path fill="rgb(254,254,255)" stroke="rgb(254,254,255)" stroke-width="1" opacity="1" d="M 118.5 188 L 121 189.5 L 119.5 190 L 118.5 188 Z " /><path fill="rgb(254,254,255)" stroke="rgb(254,254,255)" stroke-width="1" opacity="1" d="M 150.5 188 L 151 190 L 149 189.5 L 150.5 188 Z " /><path fill="rgb(254,254,255)" stroke="rgb(254,254,255)" stroke-width="1" opacity="1" d="M 3.5 189 L 3 190.5 L 2.5 192 L 2 190.5 L 3.5 189 Z " /><path fill="rgb(254,254,255)" stroke="rgb(254,254,255)" stroke-width="1" opacity="1" d="M 134 189 L 136 189.5 L 134 190.5 L 134 189 Z " /><path fill="rgb(254,254,255)" stroke="rgb(254,254,255)" stroke-width="1" opacity="1" d="M 154.5 189 L 157 189.5 Q 154.9 192.8 154.5 189 Z " /><path fill="rgb(254,254,255)" stroke="rgb(254,254,255)" stroke-width="1" opacity="1" d="M 76.5 190 Q 78.8 189.3 78 191.5 L 76.5 190 Z " /><path fill="rgb(255,255,255)" stroke="rgb(255,255,255)" stroke-width="1" opacity="1" d="M 1.5 0 L 3.5 1 L 5.5 0 L 7.5 0 L 9.5 1 L 12.5 0 L 14.5 1 Q 16.3 -1.8 22.5 0 L 24.5 0 L 39.5 0 L 41.5 1 L 43.5 1 Q 48.2 -1.3 56.5 0 L 58.5 0 L 69.5 0 L 70.5 1 L 71.5 0 L 94.5 0 L 96.5 0 L 98.5 1 L 102.5 0 L 104.5 0 L 106.5 1 Q 107.7 -1.3 112.5 0 L 116.5 0 L 119.5 1 L 121.5 0 L 123.5 0 L 125.5 1 L 126.5 0 L 135.5 0 L 137.5 0 L 168.5 0 L 169 1.5 L 170 1.5 Q 169.3 -0.8 171.5 0 Q 173 2.5 178.5 1 L 180.5 0 L 182.5 1 Q 184 -1.5 189.5 0 L 192 1 L 192 19.5 L 191 20.5 L 192 21.5 L 192 100.5 L 192 102.5 L 192 120.5 L 190.5 121 L 190.5 122 Q 193.5 121.5 192 128.5 L 192 130.5 L 191 132.5 L 192 135.5 L 192 146.5 L 191 147.5 L 192 148.5 L 192 166.5 L 192 168.5 L 192 185.5 L 191 186.5 L 192 192 L 78.5 192 L 78 190 L 76.5 190 L 76.5 192 L 51.5 192 L 50.5 191 L 49.5 192 L 3 192 L 2.5 190 L 2 192 Q -0.7 193.1 0 190.5 L 1 188.5 L 0.5 187 Q 1.7 189.3 3 186.5 Q 4.8 180.3 2 178.5 L 3 177.5 L 3 169.5 L 1.5 170 Q -1.5 170.7 0 167 L 2.5 168 L 3 165 L 0 163.5 L 1.5 164 Q 4.5 164.9 3 160.5 L 0 158.5 L 2 157.5 L 2.5 159 L 3 155.5 L 2.5 153 Q -0.5 153.9 1 149.5 L 3 147.5 L 3 140 L 1 139.5 L 3 139 L 3 135 Q 0 136 1 133 L 3 132.5 L 3 126 Q 0.3 127.1 1 124.5 L 3 119.5 L 1.5 120 L 0 119.5 L 3 117.5 L 0 116.5 L 3 114.5 L 0 112.5 L 0.5 108 L 3 109 Q 4.1 106.3 1.5 107 L 0.5 105 L 2 105.5 L 0 102.5 L 1 100 Q 4 101.3 3 97.5 L 1.5 98 L 0 97.5 L 2 97 L 1.5 95 L 0 95.5 L 1 93 Q 3.7 94.1 3 91.5 L 1 91.5 L 0 82.5 L 1.5 76 L 2.5 78 L 3 73 Q 0.3 74.1 1 71.5 L 3 71.5 L 2 67.5 L 2.5 66 Q -0.8 67.1 0 64.5 L 1.5 65 Q 4.9 65.9 3 60.5 Q -0.6 58.6 0 54 L 2 53.5 L 0 53 L 1 49 L 3 48.5 L 2.5 46 L 0 45.5 L 1 43.5 L 1 41.5 L 1.5 39 L 3 39.5 L 1.5 36 L 0.5 38 L 0 36.5 L 3 33.5 L 2 32.5 L 3 30.5 L 3 28.5 L 2.5 26 L 0.5 30 L 0 27.5 L 0 25.5 L 0.5 21 Q 1.7 23.3 3 20.5 L 2.5 19 L 0.5 20 L 0.5 19 L 3 17.5 L 0 15.5 L 1 12 L 3 11.5 L 2 9.5 L 2.5 8 L 0 8 L 0 1.5 L 1.5 0 Z M 98 7 L 97 10 L 98 10 L 98 7 Z M 2 15 L 3 16 L 4 17 Q 5 14 2 15 Z M 112 20 Q 110 23 113 22 L 112 20 Z M 138 22 L 137 25 L 139 25 L 138 22 Z M 153 23 L 151 25 L 153 25 L 153 23 Z M 28 34 L 29 37 L 29 35 L 33 35 L 28 34 Z M 83 34 L 86 37 L 87 37 L 83 34 Z M 141 34 L 140 37 L 141 37 L 141 34 Z M 154 34 L 154 35 L 156 35 L 154 34 Z M 169 34 L 170 36 Q 171 33 169 34 Z M 96 36 Q 95 38 98 37 Q 99 39 100 37 L 96 36 Z M 165 36 L 163 38 L 165 39 L 165 36 Z M 28 37 L 26 39 L 28 39 L 28 37 Z M 116 46 L 117 48 Q 118 45 116 46 Z M 141 46 L 141 48 L 143 47 L 141 46 Z M 112 47 L 112 49 L 115 48 L 112 47 Z M 45 48 L 43 51 L 45 51 L 45 48 Z M 16 49 L 14 51 L 16 51 L 16 49 Z M 68 49 Q 67 52 70 51 Q 71 48 68 49 Z M 84 49 Q 82 52 85 51 L 84 49 Z M 135 49 L 134 50 L 112 50 Q 110 53 108 52 L 110 60 L 112 59 L 117 61 L 116 61 L 114 61 L 112 64 L 114 64 L 115 64 L 109 69 L 102 71 Q 99 72 101 74 L 100 76 L 99 75 L 97 76 L 98 78 L 89 92 L 72 67 L 69 64 Q 63 63 61 65 L 59 69 L 59 135 L 61 138 L 62 139 L 69 139 L 73 134 L 73 95 L 74 95 Q 73 98 76 97 L 78 101 L 77 103 L 79 102 Q 81 103 79 105 L 81 105 L 82 108 L 87 111 L 93 110 L 98 103 L 100 104 L 101 102 L 99 101 L 104 94 Q 103 91 106 92 L 111 108 L 110 111 L 112 110 L 121 137 Q 123 140 130 139 L 134 134 L 115 77 L 119 73 L 120 74 L 120 73 L 127 67 L 128 67 L 128 76 L 127 77 Q 129 80 136 79 L 138 75 L 138 56 L 138 54 L 139 51 L 137 52 L 135 49 Z M 2 55 L 2 58 L 3 58 Q 4 54 2 55 Z M 44 62 L 41 64 L 43 64 L 44 65 L 44 62 Z M 111 62 L 109 64 L 111 64 L 111 62 Z M 109 65 L 109 66 L 111 66 L 109 65 Z M 139 75 L 138 78 L 140 78 L 139 75 Z M 84 76 L 83 77 Q 80 76 81 79 L 83 80 Q 82 77 85 78 L 84 76 Z M 43 77 L 41 80 L 43 80 L 43 77 Z M 167 77 L 167 78 L 169 78 L 167 77 Z M 3 82 L 1 86 Q 0 89 3 88 L 3 82 Z M 41 89 L 41 91 L 44 90 L 41 89 Z M 3 101 L 2 104 L 3 104 L 3 101 Z M 98 105 L 96 107 L 98 107 L 98 105 Z M 1 110 L 1 112 L 3 113 Q 4 109 1 110 Z M 131 115 L 130 118 L 131 118 L 131 115 Z M 57 117 L 55 119 L 57 119 L 57 117 Z M 111 117 L 110 119 L 113 119 L 111 117 Z M 135 119 L 134 121 L 137 121 L 135 119 Z M 43 130 L 40 133 L 43 133 L 44 131 L 43 130 Z M 84 130 L 84 132 L 86 131 L 84 130 Z M 152 130 Q 150 133 153 132 L 152 130 Z M 55 131 L 55 134 L 58 133 L 55 131 Z M 138 131 L 135 135 L 137 135 L 139 132 L 138 131 Z M 95 132 L 95 134 L 97 133 L 95 132 Z M 118 132 L 119 134 Q 120 131 118 132 Z M 164 132 Q 163 135 166 134 Q 167 131 164 132 Z M 28 133 L 26 135 L 28 135 L 28 133 Z M 177 133 L 178 135 Q 179 132 177 133 Z M 45 143 Q 40 145 44 147 L 45 145 L 45 143 Z M 57 143 L 55 145 L 57 145 L 57 143 Z M 99 143 L 97 145 L 99 145 L 99 143 Z M 72 144 L 71 148 L 72 148 L 72 144 Z M 84 144 L 84 145 L 86 145 L 84 144 Z M 127 144 L 126 146 L 124 147 L 126 149 L 127 147 L 127 144 Z M 137 144 L 136 147 L 141 147 L 141 146 Q 138 147 139 144 L 137 144 Z M 97 145 L 96 148 L 97 148 L 97 145 Z M 111 145 L 108 147 L 108 148 L 111 147 L 111 145 Z M 150 145 L 150 147 L 153 146 L 150 145 Z M 164 145 Q 163 149 166 148 Q 167 144 164 145 Z M 26 147 L 26 148 L 28 148 L 26 147 Z M 141 156 L 140 158 L 137 159 L 141 159 L 141 156 Z M 15 157 L 16 158 L 17 159 Q 18 156 15 157 Z M 46 157 L 44 159 L 46 159 L 46 157 Z M 113 157 L 112 159 L 115 159 L 113 157 Z M 155 157 L 154 159 L 156 160 L 155 157 Z M 58 158 L 59 160 Q 60 157 58 158 Z M 68 158 L 69 161 Q 68 163 71 162 L 70 161 Q 71 157 68 158 Z M 179 158 L 179 160 L 178 162 L 181 162 L 181 160 L 179 158 Z M 55 159 L 54 162 L 56 162 L 57 160 L 55 159 Z M 82 159 L 82 162 L 84 161 Q 85 158 82 159 Z M 149 161 Q 149 165 151 162 L 149 161 Z M 87 170 L 86 172 L 89 171 L 87 170 Z M 100 170 L 100 171 L 102 171 L 100 170 Z M 139 170 L 137 174 L 139 174 L 139 170 Z M 125 171 L 125 174 Q 128 173 125 171 Z M 42 172 Q 41 175 44 174 Q 45 171 42 172 Z M 111 172 L 109 174 L 111 174 L 111 172 Z M 122 175 L 122 176 L 126 176 L 122 175 Z M 71 184 L 72 186 Q 73 183 71 184 Z M 97 184 L 97 186 L 100 186 L 97 184 Z M 126 184 L 128 186 Q 129 183 126 184 Z M 124 185 L 122 187 L 123 190 L 125 186 L 124 185 Z M 15 186 L 16 188 L 17 188 L 15 186 Z M 41 186 L 40 189 L 41 189 L 41 186 Z M 45 186 L 44 188 L 48 189 L 48 187 L 45 186 Z M 80 186 L 81 188 Q 82 185 80 186 Z M 141 186 L 139 188 L 141 188 L 141 186 Z M 177 186 L 175 189 L 177 189 L 179 189 L 180 189 L 177 186 Z M 85 187 L 84 189 L 88 189 L 85 187 Z M 94 187 L 92 189 L 93 190 L 95 189 Q 96 186 94 187 Z M 126 187 Q 124 190 127 189 L 126 187 Z M 61 188 L 59 190 L 61 190 L 61 188 Z M 98 188 L 97 191 L 99 191 Q 100 187 98 188 Z M 151 188 L 149 190 L 151 190 L 151 188 Z M 134 189 L 134 191 L 136 190 L 134 189 Z M 155 189 Q 155 193 157 190 L 155 189 Z M 173 189 L 173 190 L 175 190 L 173 189 Z " /><path fill="rgb(255,255,255)" stroke="rgb(255,255,255)" stroke-width="1" opacity="1" d="M 0.5 31 L 1 33.5 L 0 33.5 L 0.5 31 Z " /><path fill="rgb(255,255,255)" stroke="rgb(255,255,255)" stroke-width="1" opacity="1" d="M 1.5 142 L 0.5 144 L 1.5 142 Z " /><path fill="rgb(255,255,255)" stroke="rgb(255,255,255)" stroke-width="1" opacity="1" d="M 0.5 178 L 1 182.5 L 0 182.5 L 0.5 178 Z " /><path fill="rgb(222,48,59)" stroke="rgb(222,48,59)" stroke-width="1" opacity="1" d="M 112.5 51 L 134.5 51 L 136 52.5 L 137 54.5 L 137 75.5 Q 136 79 130.5 78 L 129 76.5 L 129 64 L 114 75 Q 113.6 79.7 109.5 82 Q 103 83 102 78.5 Q 100.8 71.3 105.5 70 L 109.5 70 L 121 59.5 Q 113 60.5 110 56.5 Q 108.1 51.1 111.5 52 L 112.5 51 Z " /><path fill="rgb(47,54,123)" stroke="rgb(47,54,123)" stroke-width="1" opacity="1" d="M 63.5 65 Q 70.8 63.8 72 68.5 L 88.5 93 L 101.5 75 Q 101.4 80.6 105.5 82 Q 112 83 113 78.5 L 113.5 77 L 133 133.5 L 129.5 138 Q 122.3 139.3 121 134.5 L 105.5 90 L 92.5 109 L 86.5 110 L 84 109 L 72.5 91 L 72 133.5 L 68.5 138 Q 61.3 139.3 60 134.5 L 60 68.5 L 63.5 65 Z " /></svg>